<svg width="186" height="49" viewBox="0 0 186 49" fill="none" xmlns="http://www.w3.org/2000/svg">
<rect width="48.4666" height="48.2071" fill="#FB3D01"/>
<path d="M24.1846 26.1189C24.2369 26.1189 24.2893 26.1189 24.3432 26.1189C26.7451 26.1257 29.1281 26.905 31.0134 28.4182C31.0489 28.4465 31.0845 28.4748 31.1211 28.504C32.3121 29.4616 33.2629 30.5814 33.998 31.9218C34.0203 31.9618 34.0426 32.0018 34.0655 32.043C34.5995 33.0109 34.9649 34.0791 35.1658 35.1659C35.1856 35.2662 35.1856 35.2662 35.2059 35.3686C35.2891 35.852 35.3124 36.3305 35.3199 36.8204C35.3216 36.8816 35.3233 36.9429 35.325 37.006C35.326 37.3881 35.2867 37.5984 35.0361 37.8909C34.7801 38.1158 34.5686 38.1585 34.2336 38.159C34.1608 38.1592 34.0881 38.1595 34.0132 38.1597C33.9329 38.1597 33.8527 38.1596 33.77 38.1595C33.6425 38.1598 33.6425 38.1598 33.5125 38.1601C33.2761 38.1607 33.0397 38.1608 32.8033 38.1608C32.5485 38.1609 32.2938 38.1614 32.039 38.1619C31.4818 38.1627 30.9245 38.1631 30.3672 38.1634C30.0194 38.1636 29.6716 38.1639 29.3238 38.1642C28.3613 38.165 27.3987 38.1656 26.4362 38.1658C26.3438 38.1659 26.3438 38.1659 26.2495 38.1659C26.1877 38.1659 26.1259 38.1659 26.0623 38.1659C25.9371 38.166 25.8119 38.166 25.6868 38.166C25.5936 38.166 25.5936 38.166 25.4986 38.1661C24.4921 38.1663 23.4856 38.1675 22.4791 38.169C21.4463 38.1705 20.4134 38.1713 19.3806 38.1714C18.8005 38.1714 18.2204 38.1718 17.6403 38.173C17.1464 38.174 16.6525 38.1743 16.1586 38.1738C15.9065 38.1735 15.6545 38.1736 15.4024 38.1745C15.1293 38.1755 14.8563 38.175 14.5832 38.1743C14.5033 38.1748 14.4233 38.1753 14.3409 38.1759C14.2679 38.1754 14.1948 38.175 14.1195 38.1746C14.0564 38.1746 13.9934 38.1746 13.9285 38.1747C13.6039 38.1293 13.382 37.9375 13.1709 37.6963C12.6391 36.1007 13.4412 33.8085 14.1441 32.376C14.1633 32.3361 14.1826 32.2962 14.2023 32.255C14.7728 31.0817 15.5621 30.1146 16.4799 29.1968C16.5301 29.1432 16.5301 29.1432 16.5813 29.0885C17.8488 27.7487 19.7238 26.8678 21.492 26.419C21.5666 26.4 21.5666 26.4 21.6427 26.3807C22.4856 26.1792 23.3216 26.1185 24.1846 26.1189Z" fill="white"/>
<path d="M4.45248 3.16227C4.56895 3.16159 4.56895 3.16159 4.68778 3.16088C4.77432 3.16103 4.86085 3.16119 4.94738 3.16137C5.0382 3.16109 5.12901 3.16075 5.21982 3.16036C5.46721 3.15949 5.7146 3.15946 5.96199 3.15962C6.1691 3.15969 6.3762 3.15937 6.58331 3.15906C7.0731 3.15834 7.56289 3.15832 8.05268 3.15871C8.55544 3.1591 9.05819 3.15831 9.56095 3.15692C9.9939 3.15577 10.4268 3.15539 10.8598 3.1556C11.1177 3.15571 11.3757 3.15555 11.6336 3.15464C14.6897 3.14478 14.6897 3.14478 15.6543 3.94662C15.9693 4.34297 15.9947 4.80673 16.0157 5.29241C16.0193 5.3572 16.0228 5.422 16.0265 5.48876C16.0379 5.6948 16.0482 5.90087 16.0583 6.10698C16.1674 8.31885 16.6877 9.5192 18.267 11.0661C19.2891 12.0685 20.1667 13.1668 20.1945 14.6551C20.1981 15.4169 19.9939 16.1184 19.7606 16.8368C19.2193 18.5198 18.9069 20.3817 19.3997 22.1247C19.415 22.1792 19.4303 22.2338 19.446 22.29C19.6116 22.9351 19.6116 22.9351 19.8538 23.552C19.8912 23.9555 19.8912 23.9555 19.7403 24.1603C19.4326 24.3825 19.0522 24.3698 18.686 24.3306C17.9362 24.0959 17.4415 23.4225 17.0812 22.7618C16.6103 21.7899 16.5236 20.7618 16.3875 19.7045C16.1076 17.4111 16.1076 17.4111 14.9413 15.4712C14.8579 15.377 14.8579 15.377 14.8579 15.2472C14.8203 15.2301 14.7827 15.2129 14.744 15.1953C14.5922 15.1141 14.4768 15.0211 14.3457 14.9099C14.0058 14.6412 13.6363 14.4623 13.2458 14.2779C11.5716 13.4835 10.5309 12.5018 9.63775 10.875C8.82804 9.40268 7.9805 8.52732 6.40177 7.87399C6.32804 7.8434 6.25431 7.81281 6.17835 7.78129C6.0314 7.72078 5.88413 7.66106 5.7365 7.60223C5.07782 7.33263 4.44385 7.00234 4.08757 6.35839C3.94614 6.01837 3.93887 5.71562 3.94058 5.35374C3.94045 5.29555 3.94033 5.23737 3.9402 5.17742C3.94011 5.05505 3.94035 4.93269 3.94089 4.81032C3.94159 4.62252 3.9409 4.43475 3.94007 4.24695C3.94016 4.12792 3.94032 4.00888 3.94058 3.88985C3.94031 3.83355 3.94005 3.77725 3.93978 3.71925C3.94336 3.2648 3.99825 3.16317 4.45248 3.16227Z" fill="white"/>
<path d="M40.9491 3.10534C41.2694 3.10315 41.5897 3.10157 41.9099 3.10016C42.1468 3.0991 42.3837 3.09781 42.6205 3.09585C42.8743 3.0938 43.128 3.0933 43.3818 3.09302C43.4535 3.09223 43.5252 3.09143 43.5991 3.09061C44.0234 3.09186 44.2651 3.13007 44.5738 3.43872C44.6576 4.06137 44.3803 4.69777 44.0425 5.2108C43.663 5.70708 43.2197 6.07441 42.6775 6.37842C42.6325 6.40365 42.5875 6.42887 42.5412 6.45486C42.0269 6.73649 41.4887 6.95331 40.9444 7.16942C40.3408 7.4097 39.7477 7.65708 39.1724 7.96017C39.1052 7.99544 39.1052 7.99544 39.0366 8.03142C37.8094 8.69359 37.0738 9.75729 36.6724 11.0692C36.5652 11.4417 36.5007 11.812 36.4635 12.1978C36.454 12.2928 36.454 12.2928 36.4443 12.3899C36.4067 12.838 36.3922 13.2861 36.3778 13.7355C36.3206 15.4779 36.2363 17.1185 34.8955 18.397C34.3518 18.8679 33.7417 19.2463 33.1384 19.6348C32.6908 19.9232 32.2546 20.2115 31.8569 20.5675C31.8083 20.6101 31.7596 20.6528 31.7094 20.6968C30.8157 21.5295 30.3697 22.6719 29.978 23.8026C29.8338 24.2066 29.8338 24.2066 29.651 24.3306C29.3005 24.4074 28.9745 24.3324 28.6681 24.156C28.2718 23.8759 28.0945 23.5561 27.9945 23.0832C27.8649 22.0406 27.9389 21.0589 28.4182 20.1133C28.4447 20.0596 28.4712 20.0059 28.4986 19.9506C28.8214 19.3268 29.2452 18.7729 29.6652 18.2125C30.7237 16.7899 31.4049 15.3603 31.419 13.5643C31.4196 13.5002 31.4202 13.436 31.4209 13.3699C31.4168 12.4591 31.201 11.6518 30.9202 10.7947C30.3755 9.11179 29.9618 7.37459 30.5073 5.62211C30.5615 5.44274 30.6113 5.26237 30.6604 5.08155C30.7104 4.89768 30.7614 4.71408 30.8126 4.53052C30.8382 4.43862 30.8636 4.34666 30.8888 4.25466C30.9248 4.12459 30.9619 3.99491 30.9993 3.86527C31.0315 3.75144 31.0315 3.75144 31.0643 3.63531C31.156 3.40685 31.2012 3.32191 31.4028 3.17919C31.6382 3.13885 31.8722 3.14264 32.1106 3.14377C32.1832 3.1431 32.2557 3.14243 32.3305 3.14174C32.5726 3.13982 32.8146 3.13974 33.0567 3.13966C33.2275 3.13867 33.3982 3.13757 33.5689 3.13637C33.9788 3.13369 34.3887 3.13236 34.7986 3.13154C35.2682 3.13055 35.7378 3.12829 36.2074 3.12596C36.9936 3.1221 37.7798 3.11935 38.566 3.11735C39.3604 3.11533 40.1547 3.11106 40.9491 3.10534Z" fill="white"/>
<path d="M19.5485 3.17051C19.6214 3.17024 19.6942 3.16996 19.7693 3.16967C19.8898 3.16972 19.8898 3.16972 20.0127 3.16976C20.097 3.16955 20.1813 3.16933 20.2681 3.1691C20.4998 3.16853 20.7314 3.16838 20.9631 3.16834C21.1564 3.16828 21.3497 3.16804 21.543 3.16781C21.9992 3.16728 22.4554 3.16712 22.9115 3.16717C23.3821 3.16721 23.8526 3.16652 24.3232 3.1655C24.7271 3.16465 25.131 3.1643 25.5349 3.16434C25.7762 3.16436 26.0174 3.16417 26.2587 3.16349C26.5279 3.16274 26.7971 3.16304 27.0663 3.16343C27.1462 3.16306 27.2261 3.1627 27.3085 3.16232C27.4186 3.16273 27.4186 3.16273 27.531 3.16315C27.6264 3.16309 27.6264 3.16309 27.7238 3.16304C27.9142 3.18057 28.0532 3.22293 28.2236 3.30895C28.3459 3.56714 28.2573 3.7856 28.1689 4.0409C28.1495 4.09376 28.13 4.14662 28.11 4.20108C28.09 4.25695 28.0701 4.31281 28.0495 4.37038C27.8495 4.91558 27.6156 5.44564 27.3742 5.9736C27.0466 6.69539 26.814 7.32581 26.8286 8.12642C26.8295 8.1976 26.8305 8.26877 26.8314 8.3421C26.8465 8.92506 26.9279 9.43921 27.1206 9.99177C27.1415 10.052 27.1624 10.1122 27.1839 10.1742C27.3058 10.5219 27.4311 10.8683 27.5583 11.2141C28.1221 12.7484 28.5479 14.1289 27.8518 15.7039C27.5356 16.381 27.1225 16.9826 26.6692 17.5746C25.8014 18.7084 25.078 19.9085 25.112 21.381C25.1135 21.488 25.1149 21.595 25.1162 21.7019C25.1186 21.8692 25.1214 22.0365 25.1253 22.2038C25.1288 22.3661 25.1307 22.5285 25.1323 22.6908C25.1346 22.7658 25.1346 22.7658 25.137 22.8422C25.1381 23.0741 25.1301 23.2006 24.9861 23.3869C24.6672 23.6213 24.3248 23.5868 23.9414 23.5521C23.4176 23.3149 23.0607 22.7904 22.847 22.2711C22.2072 20.4313 22.5344 18.5401 22.9636 16.6931C23.2547 15.4374 23.3942 13.8728 22.9033 12.6519C22.8805 12.5927 22.8578 12.5335 22.8343 12.4725C22.7572 12.2892 22.6707 12.1146 22.5789 11.9382C22.5601 11.9014 22.5413 11.8646 22.522 11.8267C22.0304 10.8721 21.3805 10.0341 20.7135 9.19697C19.5597 7.74141 18.9344 6.27965 18.9333 4.39978C18.9325 4.32438 18.9317 4.24898 18.9309 4.1713C18.9308 4.09857 18.9307 4.02585 18.9305 3.95093C18.9303 3.88526 18.93 3.81959 18.9297 3.75193C18.9464 3.55742 18.9873 3.41788 19.0752 3.24407C19.2422 3.16057 19.3614 3.17083 19.5485 3.17051Z" fill="white"/>
<path d="M44.9631 8.1102C44.9676 9.29179 44.9711 10.4734 44.9732 11.655C44.9742 12.2036 44.9755 12.7523 44.9778 13.301C44.9797 13.7794 44.981 14.2578 44.9814 14.7363C44.9816 14.9894 44.9822 15.2426 44.9837 15.4957C44.985 15.7344 44.9854 15.9731 44.9851 16.2117C44.9852 16.3402 44.9862 16.4687 44.9873 16.5972C44.9841 17.5144 44.7112 18.1627 44.1277 18.8643C43.6806 19.4118 43.3755 20.0448 43.0535 20.6702C42.4273 21.8847 41.8962 22.8631 40.5577 23.3627C40.0258 23.5309 39.482 23.6165 38.9331 23.7102C37.5744 23.9449 36.3377 24.3684 35.2957 25.3039C35.2428 25.3499 35.1898 25.3959 35.1353 25.4432C34.7856 25.7513 34.4552 26.0753 34.1299 26.4089C33.9109 26.6211 33.7353 26.6314 33.4395 26.6281C33.1654 26.5811 33.0013 26.4237 32.8302 26.2122C32.5854 25.7332 32.6827 25.1778 32.8203 24.6786C33.2168 23.5214 33.9322 22.6578 34.9064 21.93C34.9861 21.8696 35.0658 21.8092 35.1454 21.7488C35.4998 21.4811 35.856 21.216 36.2144 20.9537C36.9906 20.3833 37.7116 19.7988 38.2803 19.0103C38.31 18.9702 38.3396 18.93 38.3702 18.8887C39.0596 17.8797 39.2721 16.5531 39.4973 15.3777C39.507 15.3269 39.5168 15.2761 39.5268 15.2237C39.5748 14.972 39.6218 14.7201 39.6672 14.4679C39.82 13.6344 40.0322 12.8175 40.3849 12.0437C40.4041 12.0008 40.4233 11.9579 40.4432 11.9137C41.2114 10.2344 42.7017 8.86452 44.4156 8.17508C44.6169 8.11654 44.7571 8.10457 44.9631 8.1102Z" fill="white"/>
<path d="M3.43882 9.27808C3.56389 9.30818 3.68889 9.33859 3.81385 9.36914C3.88346 9.38605 3.95308 9.40295 4.02481 9.42037C4.87553 9.65163 5.49042 10.3125 5.93296 11.0441C6.20921 11.5353 6.41788 12.0656 6.63226 12.5862C7.42489 14.4986 8.62748 15.436 10.4663 16.2569C11.0068 16.4992 11.4925 16.7324 11.9383 17.1288C11.9856 17.1683 12.0328 17.2079 12.0815 17.2486C12.9887 18.0683 13.0384 19.2622 13.1216 20.4019C13.2759 22.4701 13.7591 24.0533 15.1854 25.6169C15.4093 25.8662 15.5568 26.0393 15.6041 26.3825C15.5717 26.6015 15.5717 26.6015 15.4663 26.7515C15.0108 27.0751 14.42 27.0531 13.8848 26.9908C13.318 26.8523 12.8421 26.5787 12.3925 26.2122C12.3528 26.1798 12.313 26.1475 12.2721 26.1141C11.7252 25.6173 11.3796 24.9022 11.03 24.2617C10.1818 22.7134 9.0759 21.4618 7.33299 20.9406C6.55871 20.7274 5.77227 20.6381 4.97165 20.604C4.49159 20.5823 4.07475 20.5499 3.66996 20.2593C3.45001 19.9426 3.42262 19.5866 3.42321 19.2104C3.4231 19.1676 3.42299 19.1249 3.42287 19.0808C3.42266 18.9387 3.42337 18.7967 3.42408 18.6546C3.42412 18.5523 3.4241 18.45 3.42403 18.3476C3.42399 18.0707 3.42475 17.7938 3.42566 17.5169C3.42647 17.2271 3.42655 16.9374 3.4267 16.6476C3.4271 16.0994 3.42817 15.5511 3.42947 15.0029C3.43092 14.3786 3.43163 13.7542 3.43228 13.1299C3.43364 11.8459 3.43592 10.562 3.43882 9.27808Z" fill="white"/>
<path d="M3.43857 23.4223C3.49837 23.4359 3.49837 23.4359 3.55938 23.4497C3.63801 23.4674 3.63801 23.4674 3.71823 23.4854C3.7961 23.503 3.7961 23.503 3.87554 23.5209C4.04746 23.5574 4.21799 23.5804 4.39279 23.5982C5.74684 23.7454 6.87161 24.0183 7.78565 25.1092C8.19564 25.6385 8.51304 26.2194 8.82781 26.8083C9.64752 28.3388 10.7104 29.2307 12.2625 29.9754C12.2898 30.3711 12.2683 30.5682 12.003 30.8837C11.6116 31.2369 11.2441 31.2465 10.7332 31.2332C9.91675 31.1827 9.15772 30.7035 8.45599 30.3202C7.37125 29.7326 6.30428 29.5542 5.10116 29.8456C4.23386 30.0553 4.23386 30.0553 3.89274 29.9754C3.61294 29.7772 3.52412 29.5868 3.43857 29.2617C3.42129 29.0681 3.42214 28.8757 3.42384 28.6814C3.42381 28.5959 3.42381 28.5959 3.42378 28.5087C3.42387 28.3212 3.42488 28.1338 3.4259 27.9463C3.42614 27.8159 3.42632 27.6856 3.42645 27.5552C3.42695 27.2128 3.42822 26.8704 3.42966 26.528C3.43099 26.1784 3.43158 25.8287 3.43223 25.479C3.43362 24.7934 3.43584 24.1079 3.43857 23.4223Z" fill="white"/>
<path d="M44.8981 24.2658C44.9195 24.2658 44.9409 24.2658 44.963 24.2658C44.9705 24.9082 44.9763 25.5506 44.9798 26.193C44.9815 26.4914 44.9838 26.7897 44.9875 27.088C44.991 27.3762 44.9929 27.6643 44.9938 27.9525C44.9944 28.0622 44.9955 28.1719 44.9973 28.2816C45.0143 29.3888 45.0143 29.3888 44.6386 29.7807C44.6027 29.8184 44.5667 29.8561 44.5297 29.8949C44.1579 30.2619 43.7262 30.3724 43.2152 30.4052C42.5853 30.3948 41.9874 30.1906 41.3866 30.0162C40.0185 29.6261 38.7499 29.8558 37.4875 30.4527C37.1522 30.605 36.8333 30.6984 36.4635 30.6242C36.1331 30.3289 36.0275 30.0301 35.985 29.5982C36.0071 28.9152 36.5103 28.3504 36.9785 27.8991C38.0521 26.9885 39.4154 26.6297 40.7554 26.3173C42.3214 25.949 43.7564 25.4443 44.8981 24.2658Z" fill="white"/>
<path d="M40.8106 33.0005C40.8908 33.0004 40.9709 33.0003 41.0535 33.0002C41.6306 33.0067 42.1741 33.0738 42.7388 33.1877C43.2302 33.2804 43.7007 33.3001 44.1999 33.2924C44.2738 33.2918 44.3477 33.2912 44.4239 33.2906C44.6036 33.2891 44.7833 33.287 44.963 33.2843C44.9676 33.7959 44.971 34.3074 44.9731 34.819C44.9741 35.0565 44.9755 35.294 44.9777 35.5316C44.9798 35.7608 44.981 35.9901 44.9815 36.2194C44.982 36.3494 44.9836 36.4793 44.9851 36.6093C44.9851 36.6885 44.9851 36.7677 44.9851 36.8493C44.9858 36.9539 44.9858 36.9539 44.9864 37.0606C44.9599 37.2664 44.9133 37.3551 44.7684 37.5016C44.378 37.5881 44.0699 37.3544 43.7425 37.1691C42.341 36.4081 40.9146 36.0354 39.3183 36.2689C39.1752 36.2775 39.0319 36.283 38.8885 36.2851C38.7829 36.2876 38.7829 36.2876 38.6751 36.2902C38.4461 36.2658 38.331 36.2158 38.1505 36.0742C37.8421 35.59 37.7476 35.0062 37.8514 34.4448C37.9956 33.9688 38.3395 33.7234 38.7575 33.484C39.4576 33.1146 40.0263 32.9996 40.8106 33.0005Z" fill="white"/>
<path d="M8.13567 33.8938C8.58924 34.1733 9.05711 34.3835 9.59019 34.4116C9.89517 34.4352 10.1229 34.4703 10.3809 34.6468C10.5849 34.9528 10.545 35.262 10.5107 35.6201C10.4128 36.0536 10.2032 36.2797 9.83464 36.5142C9.54721 36.65 9.27991 36.6352 8.96773 36.6199C8.90205 36.6186 8.83636 36.6172 8.76869 36.6159C8.55987 36.6116 8.35125 36.6048 8.14252 36.5973C6.81994 36.5519 5.83332 36.6692 4.65855 37.3099C4.29883 37.4942 3.97341 37.5688 3.56836 37.5016C3.43859 37.3719 3.43859 37.3719 3.42299 37.1912C3.42328 37.1143 3.42356 37.0373 3.42386 36.9581C3.42383 36.8945 3.42383 36.8945 3.4238 36.8295C3.42389 36.6891 3.4249 36.5487 3.42592 36.4083C3.42616 36.311 3.42635 36.2137 3.42648 36.1164C3.42697 35.8602 3.42825 35.604 3.42968 35.3478C3.43101 35.0864 3.4316 34.8251 3.43226 34.5637C3.43365 34.0507 3.43586 33.5378 3.43859 33.0248C3.70213 33.0026 3.96573 32.9812 4.22934 32.9599C4.30273 32.9537 4.37612 32.9475 4.45174 32.9411C5.9555 32.8212 6.88523 33.0671 8.13567 33.8938Z" fill="white"/>
<path d="M0 0C15.994 0 31.988 0 48.4667 0C48.4667 15.9083 48.4667 31.8167 48.4667 48.2071C32.4727 48.2071 16.4787 48.2071 0 48.2071C0 32.2988 0 16.3904 0 0ZM0.0648817 0.0648817C0.0648817 15.909 0.0648817 31.7531 0.0648817 48.0774C15.9946 48.0774 31.9244 48.0774 48.3369 48.0774C48.3476 43.9571 48.3583 39.8368 48.3693 35.5917C48.3727 34.3163 48.3761 33.0409 48.3796 31.7268C48.3906 27.4734 48.4006 23.2199 48.4059 18.9665C48.4061 18.8078 48.4063 18.6491 48.4065 18.4905C48.4152 12.3482 48.3741 6.20717 48.3369 0.0648817C32.4071 0.0648817 16.4774 0.0648817 0.0648817 0.0648817Z" fill="#FB3D01"/>
<path d="M11.5488 16.8043C11.872 16.9023 12.0836 17.1 12.3274 17.3234C12.2846 17.3662 12.2418 17.409 12.1977 17.4532C12.0893 17.3574 11.9812 17.2614 11.8732 17.1652C11.813 17.1118 11.7528 17.0584 11.6908 17.0033C11.6439 16.959 11.5971 16.9148 11.5488 16.8692C11.5488 16.8478 11.5488 16.8264 11.5488 16.8043Z" fill="#FB3D01"/>
<path d="M43.8601 19.1401C43.9047 19.2536 43.9047 19.2536 43.9249 19.3996C43.8398 19.5456 43.8398 19.5456 43.7303 19.6592C43.6875 19.6592 43.6447 19.6592 43.6005 19.6592C43.6735 19.4663 43.7448 19.3131 43.8601 19.1401Z" fill="#FB3D01"/>
<path d="M79.4026 24.0848C79.647 24.6712 80.038 25.2088 80.5755 25.6976C81.1376 26.1863 81.4186 26.5772 81.4186 26.8705V26.9804C81.4186 27.3959 81.1498 27.6036 80.6122 27.6036H72.585C72.0474 27.6036 71.7786 27.3959 71.7786 26.9804V26.8705C71.7786 26.6261 71.9374 26.3818 72.2551 26.1374C72.5972 25.8686 72.8904 25.5754 73.1348 25.2577C73.3791 24.9156 73.4158 24.5246 73.2447 24.0848L72.1451 21.1525H61.9187L60.8557 24.0848C60.6846 24.5246 60.7213 24.9156 60.9657 25.2577C61.21 25.5754 61.491 25.8686 61.8087 26.1374C62.1508 26.3818 62.3219 26.6261 62.3219 26.8705V26.9804C62.3219 27.3959 62.0408 27.6036 61.4788 27.6036H56.6771C56.1395 27.6036 55.8708 27.3959 55.8708 26.9804V26.8705C55.8708 26.5772 56.1395 26.1985 56.6771 25.7342C57.2147 25.2455 57.6057 24.6957 57.8501 24.0848L65.1442 5.35459C65.3397 4.84143 65.1686 4.24275 64.6311 3.55854C64.1179 2.87433 63.8613 2.45892 63.8613 2.31231V2.16569C63.8613 1.77471 64.1057 1.57923 64.5944 1.57923H68.4064C69.4327 1.57923 70.178 2.1046 70.6423 3.15535L79.4026 24.0848ZM62.7984 18.7699H71.2654L66.9769 7.37056L62.7984 18.7699ZM83.0803 27.6036C82.5427 27.6036 82.2739 27.3959 82.2739 26.9804V26.8705C82.2739 26.6261 82.5061 26.2474 82.9704 25.7342C83.4346 25.1966 83.6668 24.6468 83.6668 24.0848V5.09801C83.6668 4.53598 83.4346 3.99839 82.9704 3.48523C82.5061 2.94764 82.2739 2.55667 82.2739 2.31231V2.16569C82.2739 1.77471 82.5427 1.57923 83.0803 1.57923H89.9346C90.4967 1.57923 90.7777 1.77471 90.7777 2.16569V2.31231C90.7777 2.55667 90.5211 2.94764 90.0079 3.48523C89.4948 3.99839 89.2382 4.53598 89.2382 5.09801V13.2352H100.454V5.09801C100.454 4.53598 100.222 3.99839 99.7579 3.48523C99.2936 2.94764 99.0615 2.55667 99.0615 2.31231V2.16569C99.0615 1.77471 99.3303 1.57923 99.8679 1.57923H106.722C107.284 1.57923 107.565 1.77471 107.565 2.16569V2.31231C107.565 2.55667 107.296 2.94764 106.759 3.48523C106.246 3.99839 105.989 4.53598 105.989 5.09801V24.0848C105.989 24.6468 106.246 25.1966 106.759 25.7342C107.296 26.2474 107.565 26.6261 107.565 26.8705V26.9804C107.565 27.3959 107.284 27.6036 106.722 27.6036H99.8679C99.3303 27.6036 99.0615 27.3959 99.0615 26.9804V26.8705C99.0615 26.6261 99.2936 26.2474 99.7579 25.7342C100.222 25.1966 100.454 24.6468 100.454 24.0848V15.6544H89.2382L89.2015 24.0848C89.2015 24.6468 89.4581 25.1966 89.9713 25.7342C90.5089 26.2474 90.7777 26.6261 90.7777 26.8705V26.9804C90.7777 27.3959 90.4967 27.6036 89.9346 27.6036H83.0803ZM132.166 24.0848C132.41 24.6712 132.801 25.2088 133.339 25.6976C133.901 26.1863 134.182 26.5772 134.182 26.8705V26.9804C134.182 27.3959 133.913 27.6036 133.375 27.6036H125.348C124.811 27.6036 124.542 27.3959 124.542 26.9804V26.8705C124.542 26.6261 124.701 26.3818 125.018 26.1374C125.36 25.8686 125.654 25.5754 125.898 25.2577C126.142 24.9156 126.179 24.5246 126.008 24.0848L124.908 21.1525H114.682L113.619 24.0848C113.448 24.5246 113.484 24.9156 113.729 25.2577C113.973 25.5754 114.254 25.8686 114.572 26.1374C114.914 26.3818 115.085 26.6261 115.085 26.8705V26.9804C115.085 27.3959 114.804 27.6036 114.242 27.6036H109.44C108.903 27.6036 108.634 27.3959 108.634 26.9804V26.8705C108.634 26.5772 108.903 26.1985 109.44 25.7342C109.978 25.2455 110.369 24.6957 110.613 24.0848L117.907 5.35459C118.103 4.84143 117.932 4.24275 117.394 3.55854C116.881 2.87433 116.624 2.45892 116.624 2.31231V2.16569C116.624 1.77471 116.869 1.57923 117.358 1.57923H121.17C122.196 1.57923 122.941 2.1046 123.405 3.15535L132.166 24.0848ZM115.561 18.7699H124.029L119.74 7.37056L115.561 18.7699ZM158.716 1.57923C159.278 1.57923 159.559 1.78693 159.559 2.20234V2.31231C159.559 2.55667 159.29 2.94764 158.752 3.48523C158.239 3.99839 157.982 4.53598 157.982 5.09801V26.1374C157.982 26.6017 157.848 26.9682 157.579 27.237C157.335 27.4814 156.993 27.6036 156.553 27.6036H154.83C154.293 27.6036 153.755 27.2248 153.217 26.4673L139.252 7.7371V24.0115C139.252 24.5979 139.521 25.16 140.059 25.6976C140.621 26.2351 140.902 26.6261 140.902 26.8705V26.9804C140.902 27.3959 140.621 27.6036 140.059 27.6036H135.807C135.245 27.6036 134.964 27.3959 134.964 26.9804V26.8705C134.964 26.6261 135.208 26.2351 135.697 25.6976C136.186 25.16 136.43 24.5979 136.43 24.0115V5.13466C136.43 4.5482 136.186 3.99839 135.697 3.48523C135.208 2.97208 134.964 2.59332 134.964 2.34896V2.20234C134.964 1.78693 135.245 1.57923 135.807 1.57923H140.389C141.073 1.57923 141.647 1.92133 142.111 2.60554L155.16 20.7126V5.09801C155.16 4.53598 154.891 3.99839 154.354 3.48523C153.841 2.94764 153.584 2.55667 153.584 2.31231V2.20234C153.584 1.78693 153.865 1.57923 154.427 1.57923H158.716ZM183.676 24.0848C183.92 24.6712 184.311 25.2088 184.849 25.6976C185.411 26.1863 185.692 26.5772 185.692 26.8705V26.9804C185.692 27.3959 185.423 27.6036 184.886 27.6036H176.858C176.321 27.6036 176.052 27.3959 176.052 26.9804V26.8705C176.052 26.6261 176.211 26.3818 176.529 26.1374C176.871 25.8686 177.164 25.5754 177.408 25.2577C177.653 24.9156 177.689 24.5246 177.518 24.0848L176.419 21.1525H166.192L165.129 24.0848C164.958 24.5246 164.995 24.9156 165.239 25.2577C165.483 25.5754 165.764 25.8686 166.082 26.1374C166.424 26.3818 166.595 26.6261 166.595 26.8705V26.9804C166.595 27.3959 166.314 27.6036 165.752 27.6036H160.951C160.413 27.6036 160.144 27.3959 160.144 26.9804V26.8705C160.144 26.5772 160.413 26.1985 160.951 25.7342C161.488 25.2455 161.879 24.6957 162.124 24.0848L169.418 5.35459C169.613 4.84143 169.442 4.24275 168.905 3.55854C168.391 2.87433 168.135 2.45892 168.135 2.31231V2.16569C168.135 1.77471 168.379 1.57923 168.868 1.57923H172.68C173.706 1.57923 174.451 2.1046 174.916 3.15535L183.676 24.0848ZM167.072 18.7699H175.539L171.25 7.37056L167.072 18.7699Z" fill="black"/>
<path d="M61.9389 46.7985C60.2232 46.7985 58.8779 46.4151 57.9031 45.6482C56.9283 44.8683 56.4408 44.108 56.4408 43.3671C56.4408 43.1331 56.5058 42.9447 56.6358 42.8017C56.7658 42.6587 56.9478 42.5872 57.1817 42.5872C57.4287 42.6002 57.6431 42.7302 57.8251 42.9772C58.0201 43.2111 58.2021 43.4971 58.371 43.835C58.553 44.173 58.7675 44.5109 59.0144 44.8488C59.2614 45.1738 59.6383 45.4532 60.1452 45.6872C60.6651 45.9212 61.289 46.0382 62.0169 46.0382C62.9398 46.0382 63.6872 45.7977 64.2591 45.3168C64.844 44.8229 65.1364 44.1925 65.1364 43.4256C65.1364 42.7757 64.9804 42.2428 64.6685 41.8268C64.3695 41.4109 63.9731 41.112 63.4792 40.93C62.9983 40.735 62.4589 40.579 61.861 40.4621C61.276 40.3451 60.6846 40.2151 60.0867 40.0721C59.4888 39.9292 58.9429 39.7407 58.449 39.5067C57.9681 39.2598 57.5717 38.8763 57.2597 38.3564C56.9608 37.8365 56.8113 37.1801 56.8113 36.3872C56.8113 35.2694 57.2402 34.3596 58.0981 33.6577C58.9689 32.9428 60.1582 32.5854 61.666 32.5854C63.1997 32.5854 64.4215 32.9233 65.3314 33.5992C66.2542 34.2751 66.7157 34.9965 66.7157 35.7633C66.7157 36.2833 66.4492 36.5432 65.9163 36.5432C65.6563 36.5432 65.4354 36.4327 65.2534 36.2118C65.0844 35.9908 64.9285 35.7243 64.7855 35.4124C64.6425 35.1004 64.467 34.7885 64.2591 34.4765C64.0511 34.1646 63.7196 33.8981 63.2647 33.6772C62.8228 33.4562 62.2704 33.3457 61.6075 33.3457C60.6587 33.3457 59.9178 33.5927 59.3849 34.0866C58.8519 34.5805 58.5855 35.2109 58.5855 35.9778C58.5855 36.5887 58.735 37.0891 59.0339 37.4791C59.3459 37.869 59.7488 38.1549 60.2427 38.3369C60.7366 38.5189 61.276 38.6749 61.861 38.8048C62.4589 38.9218 63.0503 39.0583 63.6352 39.2143C64.2331 39.3702 64.779 39.5782 65.2729 39.8382C65.7668 40.0851 66.1632 40.4816 66.4622 41.0275C66.7741 41.5604 66.9301 42.2233 66.9301 43.0161C66.9301 44.16 66.4492 45.0763 65.4874 45.7652C64.5255 46.4541 63.3427 46.7985 61.9389 46.7985ZM71.7949 46.7985C71.015 46.7985 70.3976 46.5516 69.9427 46.0577C69.5008 45.5507 69.2798 44.8164 69.2798 43.8545V38.025H67.993C67.798 38.025 67.7006 37.9275 67.7006 37.7325V37.5375C67.7006 37.3426 67.798 37.2451 67.993 37.2451H68.6949C69.5787 37.2451 70.0727 36.6277 70.1766 35.3929C70.2026 35.1329 70.3131 35.003 70.5081 35.003H70.7031C70.911 35.003 71.015 35.1329 71.015 35.3929L71.0345 37.2451H73.7251C73.8031 37.2451 73.868 37.2776 73.92 37.3426C73.985 37.3946 74.0175 37.4596 74.0175 37.5375V37.7325C74.0175 37.9275 73.92 38.025 73.7251 38.025H71.0345V43.874C71.0345 44.3939 71.145 44.7969 71.3659 45.0828C71.5869 45.3688 71.8859 45.5117 72.2628 45.5117C72.6787 45.5117 73.0102 45.4078 73.2571 45.1998C73.5171 44.9788 73.6666 44.6929 73.7056 44.3419C73.7706 44.186 73.881 44.121 74.037 44.147C74.206 44.16 74.2905 44.2509 74.2905 44.4199C74.2905 45.0568 74.0565 45.6157 73.5886 46.0966C73.1337 46.5646 72.5358 46.7985 71.7949 46.7985ZM83.9891 44.9268C83.9891 45.2518 84.0476 45.4987 84.1645 45.6677C84.2815 45.8367 84.405 45.9342 84.535 45.9602C84.665 45.9732 84.7884 46.0057 84.9054 46.0577C85.0224 46.1096 85.0809 46.1941 85.0809 46.3111C85.0809 46.5841 84.678 46.7205 83.8721 46.7205C82.8842 46.7205 82.4098 46.2396 82.4488 45.2778L82.4098 45.1608C81.8119 46.2526 80.8111 46.7985 79.4073 46.7985C78.3155 46.7985 77.4381 46.4151 76.7752 45.6482C76.1254 44.8683 75.8004 43.77 75.8004 42.3533V38.9023C75.8004 38.6164 75.6769 38.3759 75.43 38.1809C75.196 37.986 75.079 37.8495 75.079 37.7715V37.713C75.079 37.557 75.1765 37.4596 75.3715 37.4206L77.0092 37.1281C77.3601 37.0631 77.5356 37.1411 77.5356 37.3621L77.5161 42.4897C77.5161 43.6206 77.7111 44.4979 78.101 45.1218C78.504 45.7327 79.0759 46.0382 79.8167 46.0382C80.5186 46.0382 81.1035 45.7652 81.5715 45.2193C82.0524 44.6734 82.2928 43.9585 82.2928 43.0746V38.9023C82.2928 38.6294 82.1629 38.3954 81.9029 38.2004C81.6559 38.0055 81.5325 37.8625 81.5325 37.7715V37.713C81.5325 37.557 81.63 37.4596 81.8249 37.4206L83.4821 37.1281C83.8201 37.0631 83.9891 37.1411 83.9891 37.3621V44.9268ZM95.2471 45.2388C95.2471 45.4987 95.3641 45.7262 95.598 45.9212C95.845 46.1161 95.9685 46.2526 95.9685 46.3306V46.3891C95.9685 46.5321 95.871 46.6036 95.676 46.6036H94.0383C93.8433 46.6036 93.7328 46.4996 93.7069 46.2916L93.6679 45.3168C93.3429 45.7977 92.914 46.1681 92.3811 46.4281C91.8612 46.675 91.3022 46.7985 90.7043 46.7985C89.4695 46.7985 88.4102 46.3436 87.5264 45.4338C86.6425 44.5239 86.2006 43.3476 86.2006 41.9048C86.2006 40.4881 86.636 39.3248 87.5069 38.4149C88.3777 37.5051 89.463 37.0501 90.7628 37.0501C91.9066 37.0501 92.849 37.4726 93.5899 38.3174V34.0671C93.5899 33.8332 93.5184 33.6447 93.3754 33.5017C93.2454 33.3587 93.1089 33.2483 92.966 33.1703C92.836 33.0923 92.771 33.0078 92.771 32.9168V32.8778C92.771 32.7478 92.8685 32.6374 93.0635 32.5464L94.6427 32.02C95.0456 31.864 95.2471 31.9615 95.2471 32.3124V45.2388ZM91.1138 46.1551C91.7377 46.1551 92.3031 45.9082 92.81 45.4143C93.3299 44.9073 93.5899 44.2185 93.5899 43.3476H93.6094L93.5899 42.3533V40.4036C93.5899 39.7407 93.3039 39.1233 92.732 38.5514C92.1731 37.9665 91.5102 37.674 90.7433 37.674C89.8985 37.674 89.2096 38.012 88.6767 38.6879C88.1568 39.3508 87.8903 40.2281 87.8773 41.3199C87.8513 42.6717 88.1438 43.8155 88.7547 44.7514C89.3656 45.6742 90.1519 46.1421 91.1138 46.1551ZM98.9585 35.3929C98.5556 35.3929 98.2371 35.2824 98.0032 35.0615C97.7692 34.8405 97.6522 34.548 97.6522 34.1841C97.6522 33.8202 97.7692 33.5277 98.0032 33.3067C98.2501 33.0728 98.5686 32.9558 98.9585 32.9558C99.3354 32.9558 99.6409 33.0728 99.8748 33.3067C100.109 33.5277 100.226 33.8202 100.226 34.1841C100.226 34.548 100.109 34.8405 99.8748 35.0615C99.6409 35.2824 99.3354 35.3929 98.9585 35.3929ZM97.8277 46.6036C97.5807 46.6036 97.4572 46.5191 97.4572 46.3501V46.2721C97.4572 46.1811 97.5157 46.0966 97.6327 46.0187C97.7497 45.9277 97.8667 45.8237 97.9837 45.7067C98.1006 45.5767 98.1591 45.4143 98.1591 45.2193V39.4092C98.1591 39.1103 98.0421 38.8503 97.8082 38.6294C97.5742 38.4084 97.4572 38.2654 97.4572 38.2004V38.1614C97.4572 38.0705 97.5547 37.973 97.7497 37.869L99.2509 37.1281C99.4589 37.0501 99.6084 37.0371 99.6994 37.0891C99.8034 37.1411 99.8554 37.2451 99.8554 37.4011V45.2193C99.8554 45.3753 99.8943 45.5117 99.9723 45.6287C100.05 45.7327 100.141 45.8107 100.245 45.8627C100.349 45.9147 100.44 45.9797 100.518 46.0577C100.596 46.1226 100.635 46.1941 100.635 46.2721V46.3501C100.635 46.5191 100.499 46.6036 100.226 46.6036H97.8277ZM107.092 46.7985C105.584 46.7985 104.356 46.3111 103.407 45.3363C102.471 44.3484 102.003 43.1656 102.003 41.7879C102.003 40.4361 102.458 39.3118 103.368 38.4149C104.278 37.5051 105.402 37.0501 106.741 37.0501C108.184 37.0501 109.366 37.531 110.289 38.4929C111.225 39.4417 111.693 40.6115 111.693 42.0023C111.693 43.3671 111.264 44.5109 110.406 45.4338C109.548 46.3436 108.444 46.7985 107.092 46.7985ZM107.326 46.1551C108.093 46.1551 108.723 45.8302 109.217 45.1803C109.724 44.5304 109.977 43.666 109.977 42.5872C109.977 41.2094 109.652 40.0526 109.003 39.1168C108.353 38.1679 107.534 37.6935 106.546 37.6935C105.714 37.6935 105.038 38.0185 104.518 38.6684C103.998 39.3053 103.738 40.1631 103.738 41.2419C103.738 42.5417 104.076 43.6855 104.752 44.6734C105.428 45.6612 106.286 46.1551 107.326 46.1551ZM116.946 46.779C115.75 46.779 114.788 46.5386 114.061 46.0577C113.346 45.5767 112.988 45.0763 112.988 44.5564C112.988 44.0755 113.242 43.835 113.749 43.835C113.97 43.835 114.145 43.9195 114.275 44.0885C114.418 44.2444 114.542 44.4394 114.646 44.6734C114.749 44.9073 114.873 45.1413 115.016 45.3753C115.172 45.6092 115.412 45.8107 115.737 45.9797C116.062 46.1356 116.465 46.2136 116.946 46.2136C117.596 46.2136 118.129 46.0641 118.545 45.7652C118.961 45.4532 119.169 45.0308 119.169 44.4979C119.169 43.978 118.961 43.5751 118.545 43.2891C118.142 43.0032 117.648 42.8017 117.063 42.6847C116.478 42.5547 115.893 42.4117 115.308 42.2558C114.723 42.0998 114.223 41.8138 113.807 41.3979C113.404 40.982 113.203 40.4231 113.203 39.7212C113.203 38.9673 113.547 38.3369 114.236 37.83C114.925 37.3101 115.802 37.0501 116.868 37.0501C117.999 37.0501 118.915 37.2906 119.617 37.7715C120.319 38.2524 120.67 38.7788 120.67 39.3508C120.67 39.5457 120.599 39.7082 120.456 39.8382C120.326 39.9681 120.163 40.0331 119.968 40.0331C119.734 40.0331 119.533 39.9097 119.364 39.6627C119.195 39.4157 119.052 39.1428 118.935 38.8438C118.831 38.5449 118.61 38.2719 118.272 38.025C117.934 37.778 117.492 37.6545 116.946 37.6545C116.374 37.6545 115.893 37.817 115.503 38.1419C115.126 38.4669 114.938 38.8698 114.938 39.3508C114.938 39.8577 115.139 40.2541 115.542 40.5401C115.958 40.813 116.459 41.0145 117.044 41.1445C117.629 41.2744 118.207 41.4174 118.779 41.5734C119.364 41.7294 119.858 42.0218 120.261 42.4507C120.677 42.8667 120.884 43.4321 120.884 44.147C120.884 44.9008 120.521 45.5312 119.793 46.0382C119.078 46.5321 118.129 46.779 116.946 46.779Z" fill="black"/>
</svg>
